<svg width="24" height="12" viewBox="0 0 24 12" fill="none" xmlns="http://www.w3.org/2000/svg">
<path d="M19.6932 2.67628C20.4402 1.74398 20.7923 1.00946 20.7923 1.00946L19.6932 2.67628ZM19.6932 2.67628C18.9827 3.56319 17.9148 4.62917 16.4526 5.41206M19.6932 2.67628L16.4526 5.41206M19.6932 2.67628L22.9903 4.31141M12 6.51271C10.2328 6.51271 8.75552 6.05903 7.54741 5.41206M12 6.51271L7.54741 5.41206M12 6.51271C13.7673 6.51271 15.2445 6.05903 16.4526 5.41206M12 6.51271L16.4526 5.41206M12 6.51271V10.365M7.54741 5.41206L4.3068 8.71402M7.54741 5.41206C6.16328 4.67088 5.13243 3.67612 4.4236 2.81981M7.54741 5.41206L4.4236 2.81981M16.4526 5.41206L19.1437 8.71402M4.4236 2.81981C3.59646 1.82044 3.20777 1.00946 3.20777 1.00946L4.4236 2.81981ZM4.4236 2.81981L1.00971 4.31141" stroke="#3F414E" stroke-width="2" stroke-linecap="round" stroke-linejoin="round"/>
</svg>
