<svg width="20" height="20" viewBox="0 0 20 20" fill="none" xmlns="http://www.w3.org/2000/svg">
<path d="M9.99395 19.9984C9.92812 19.9984 9.86145 19.9826 9.80146 19.9509L0.225311 14.9512C0.0878182 14.8795 0.0011562 14.737 0.0011562 14.582V5.20753C0.0011562 5.06338 0.0761521 4.92922 0.198646 4.85339C0.321139 4.77756 0.475297 4.77089 0.603624 4.83505L10.1798 9.62646C10.3206 9.69729 10.4098 9.84145 10.4098 9.99894V19.5818C10.4098 19.7276 10.3339 19.8626 10.2089 19.9384C10.1439 19.9784 10.0689 19.9984 9.99395 19.9984ZM0.834444 14.3295L9.5773 18.8943V10.2564L0.834444 5.88166V14.3295Z" fill="#28B446"/>
<path d="M10.0072 19.9985C9.93222 19.9985 9.85723 19.9785 9.7914 19.9385C9.66724 19.8627 9.59058 19.7277 9.59058 19.5819V9.99905C9.59058 9.84156 9.67974 9.6974 9.82056 9.62657L19.3967 4.83516C19.5242 4.77016 19.6792 4.77683 19.8017 4.85349C19.925 4.92932 20 5.06348 20 5.20764V14.5821C20 14.7371 19.9134 14.8796 19.7759 14.9513L10.1997 19.951C10.1397 19.9827 10.073 19.9985 10.0072 19.9985ZM10.4239 10.2565V18.8944L19.1667 14.3296V5.88177L10.4239 10.2565ZM19.5834 14.5821H19.5917H19.5834Z" fill="#28B446"/>
<path d="M0.41751 5.62428C0.264185 5.62428 0.117526 5.54012 0.044197 5.39429C-0.0591307 5.18847 0.0250314 4.93848 0.230854 4.83515L9.82033 0.0437476C9.93783 -0.0145825 10.0762 -0.0145825 10.1928 0.0437476L19.769 4.83515C19.9748 4.93848 20.0581 5.18847 19.9556 5.39429C19.8523 5.60011 19.6031 5.68261 19.3965 5.58095L10.007 0.882036L0.604167 5.58011C0.54417 5.61011 0.48084 5.62428 0.41751 5.62428Z" fill="#28B446"/>
<path d="M15.0003 12.4989C14.7703 12.4989 14.5836 12.3122 14.5836 12.0822V7.75662L5.23745 3.08021C5.03163 2.97772 4.9483 2.7269 5.05163 2.52107C5.15495 2.31525 5.40494 2.23276 5.61076 2.33442L15.1869 7.12583C15.3277 7.19749 15.4169 7.34165 15.4169 7.49914V12.0822C15.4169 12.3122 15.2302 12.4989 15.0003 12.4989Z" fill="#28B446"/>
</svg>
