<svg width="23" height="22" viewBox="0 0 23 22" fill="none" xmlns="http://www.w3.org/2000/svg">
<path d="M5.03425 18.8694L4.68251 16.3839C4.63243 16.0302 4.30471 15.7832 3.95129 15.834C3.59748 15.884 3.35128 16.2114 3.40135 16.5652L3.48011 17.1218C2.80842 16.2929 2.27358 15.3529 1.90307 14.3398C-0.71962 7.16913 5.61425 -0.0627927 12.9989 1.51248C13.3483 1.58684 13.6921 1.36419 13.7667 1.01473C13.8413 0.665278 13.6184 0.321558 13.269 0.246982C4.93013 -1.53213 -2.30274 6.6079 0.687868 14.7843C1.10685 15.93 1.71139 16.9935 2.47086 17.9319L1.84571 17.8118C1.4947 17.7445 1.15568 17.9742 1.08826 18.3251C1.02085 18.676 1.25066 19.0151 1.60154 19.0825L4.21638 19.5849C4.6873 19.7177 5.09671 19.31 5.03425 18.8694Z" fill="#28B446"/>
<path d="M21.34 7.22268C20.921 6.07705 20.3165 5.0135 19.557 4.07511L20.1822 4.19519C20.5329 4.26248 20.8722 4.0328 20.9396 3.68192C21.007 3.331 20.7772 2.99189 20.4264 2.92448L17.811 2.42203C17.3461 2.29117 16.9302 2.6901 16.9936 3.13751L17.3454 5.62304C17.3911 5.9461 17.668 6.17945 17.9852 6.17945C18.3806 6.17945 18.6815 5.82995 18.6265 5.44171L18.5478 4.88509C19.2195 5.71405 19.7543 6.65403 20.1248 7.66707C21.9616 12.6891 19.3782 18.2718 14.366 20.1118C12.6513 20.7413 10.8058 20.8735 9.02894 20.4944C8.67962 20.4199 8.33577 20.6427 8.26119 20.9922C8.18662 21.3416 8.40948 21.6854 8.75894 21.7599C10.7748 22.1901 12.8679 22.0401 14.8119 21.3265C20.5069 19.2359 23.4266 12.9276 21.34 7.22268Z" fill="#28B446"/>
<path d="M17.7206 11.0373C17.7206 7.33302 14.712 4.31933 11.0139 4.31933C7.31577 4.31933 4.30713 7.33302 4.30713 11.0373C4.30713 14.7417 7.31577 17.7553 11.0139 17.7553C14.712 17.7553 17.7206 14.7417 17.7206 11.0373ZM5.60109 11.0373C5.60109 8.04651 8.02926 5.6133 11.0139 5.6133C13.9985 5.6133 16.4267 8.04651 16.4267 11.0373C16.4267 14.0282 13.9985 16.4614 11.0139 16.4614C8.02926 16.4614 5.60109 14.0282 5.60109 11.0373Z" fill="#28B446"/>
<path d="M17.7205 11.0373C17.7205 7.33302 14.7119 4.31933 11.0138 4.31933C7.31565 4.31933 4.307 7.33302 4.307 11.0373C4.307 14.7417 7.31565 17.7553 11.0138 17.7553C14.7119 17.7553 17.7205 14.7417 17.7205 11.0373ZM5.60097 11.0373C5.60097 8.04651 8.02914 5.6133 11.0138 5.6133C13.9984 5.6133 16.4265 8.04651 16.4265 11.0373C16.4265 14.0282 13.9984 16.4614 11.0138 16.4614C8.02914 16.4614 5.60097 14.0282 5.60097 11.0373Z" fill="#28B446"/>
<path d="M11.6609 14.6715V14.1314C12.782 14.1314 13.5621 13.2515 13.5621 12.2609C13.5621 11.2295 12.724 10.3904 11.6939 10.3904H10.334C10.0173 10.3904 9.7597 10.1318 9.7597 9.81388C9.7597 9.50703 10.0012 9.23737 10.343 9.23737H11.645C11.8735 9.23966 12.0996 9.34261 12.2656 9.5201C12.5096 9.78105 12.919 9.79468 13.18 9.5506C13.441 9.30651 13.4546 8.8971 13.2105 8.63615C12.8047 8.20233 12.2403 7.9504 11.6609 7.94371V7.40339C11.6609 7.04609 11.3712 6.75641 11.0139 6.75641C10.6566 6.75641 10.3669 7.04609 10.3669 7.40339V7.94345C9.24578 7.94345 8.46569 8.82335 8.46569 9.81392C8.46569 10.8453 9.30379 11.6844 10.3339 11.6844H11.6938C12.0105 11.6844 12.2681 11.9431 12.2681 12.261C12.2681 12.5811 12.0098 12.8375 11.6939 12.8375C11.6909 12.8375 11.6878 12.8375 11.6848 12.8375H10.2641C10.1029 12.8358 9.93145 12.7774 9.78109 12.6729C9.48762 12.469 9.08446 12.5416 8.88058 12.835C8.67665 13.1284 8.7492 13.5315 9.04263 13.7355C9.48559 14.0434 9.89789 14.1315 10.3669 14.1315V14.6715C10.3669 15.0289 10.6565 15.3185 11.0139 15.3185C11.3712 15.3184 11.6609 15.0288 11.6609 14.6715Z" fill="#28B446"/>
</svg>
