<svg width="21" height="21" viewBox="0 0 21 21" fill="none" xmlns="http://www.w3.org/2000/svg">
<path d="M20.3152 10.7284H7.076C6.698 10.7284 6.39122 10.4216 6.39122 10.0436C6.39122 9.66559 6.698 9.35881 7.076 9.35881H20.3152C20.6932 9.35881 21 9.66559 21 10.0436C21 10.4216 20.6932 10.7284 20.3152 10.7284Z" fill="#EF574B"/>
<path d="M10.7283 14.3803C10.5529 14.3803 10.3777 14.3138 10.2443 14.1796L6.59221 10.5275C6.32472 10.2598 6.32472 9.82613 6.59221 9.55863L10.2443 5.90653C10.5118 5.63904 10.9455 5.63904 11.2131 5.90653C11.4806 6.17402 11.4806 6.60769 11.2131 6.87519L8.04486 10.0435L11.2131 13.2117C11.4806 13.4792 11.4806 13.9129 11.2131 14.1804C11.0789 14.3138 10.9035 14.3803 10.7283 14.3803Z" fill="#EF574B"/>
<path d="M10.0435 20.087C4.50591 20.087 0 15.5811 0 10.0435C0 4.50591 4.50591 0 10.0435 0C14.1987 0 17.8673 2.49988 19.3912 6.36949C19.5299 6.72091 19.3564 7.11813 19.005 7.25773C18.6534 7.39482 18.2562 7.22396 18.1166 6.8707C16.8008 3.52889 13.6317 1.36956 10.0435 1.36956C5.2609 1.36956 1.36956 5.26107 1.36956 10.0435C1.36956 14.8259 5.2609 18.7174 10.0435 18.7174C13.6317 18.7174 16.8008 16.5581 18.1166 13.2173C18.2553 12.8639 18.6526 12.6932 19.005 12.8301C19.3564 12.9689 19.5299 13.3669 19.3912 13.7185C17.8673 17.5871 14.1987 20.087 10.0435 20.087Z" fill="#EF574B"/>
</svg>
