<svg width="37" height="37" viewBox="0 0 37 37" fill="none" xmlns="http://www.w3.org/2000/svg">
<path d="M0.493796 14.0652C0.493796 13.5357 0.871718 13.2654 1.62774 13.2522L9.35784 13.1389L12.9677 19.755C13.1433 20.1844 13.2324 20.48 13.2324 20.6435C13.2324 20.7948 13.1397 20.9438 12.9576 21.0885C12.7752 21.233 12.5952 21.3053 12.4194 21.3053C12.3939 21.3053 12.2685 21.2428 12.0415 21.1161L11.0585 20.568L8.94192 23.9329H18.1462V33.3469H9.54663C7.95892 33.3469 6.69829 32.5475 5.76669 30.9464L0.493617 21.9293C0.191172 21.4 0.0400391 20.7705 0.0400391 20.0389C0.0400391 19.4717 0.165478 18.9803 0.417962 18.5644L2.19463 15.6532L0.852626 14.8404C0.612454 14.7023 0.493617 14.4433 0.493617 14.0653L0.493796 14.0652ZM1.38204 14.4245L3.00757 15.3884L0.92846 18.9801C0.739499 19.2959 0.645108 19.6862 0.645108 20.1521C0.645108 20.6194 0.78946 21.0917 1.07959 21.5699L5.72904 29.5851V29.2069C5.72904 28.2619 5.89248 27.5246 6.22027 26.9955L10.7942 19.755L12.1551 20.4167C12.2808 20.5435 12.3686 20.6058 12.4194 20.6058C12.4952 20.5812 12.5331 20.5435 12.5331 20.4923C12.5331 20.48 12.4574 20.3289 12.3063 20.0388L9.05522 13.7624L1.38222 13.838C1.25553 13.838 1.19326 13.9138 1.19326 14.0648C1.19326 14.2159 1.25553 14.3362 1.38222 14.4242L1.38204 14.4245ZM28.6358 6.01208L29.8454 5.35045C30.0722 5.22466 30.248 5.16149 30.3747 5.16149C30.6014 5.16149 30.8284 5.25374 31.055 5.4361C31.2818 5.61846 31.3951 5.82294 31.3951 6.04973C31.3951 6.1766 31.313 6.43462 31.1496 6.82503L26.9728 13.4794L19.5072 12.8366C18.7509 12.761 18.373 12.5531 18.373 12.2128C18.373 11.9238 18.5056 11.7159 18.77 11.5889L19.8096 10.8897L17.9953 7.14657L13.2702 14.9163L5.25637 10.0768L9.7545 2.68572C10.5607 1.36246 11.7071 0.732946 13.1945 0.79522L24.1562 1.24898C25.0124 1.28698 25.6549 1.43258 26.0842 1.68382C26.4744 1.92399 26.8211 2.34527 27.1236 2.95034L28.6355 6.0128L28.6358 6.01208ZM13.0434 14.0652L17.6927 6.48511L16.2564 3.61179C15.5625 2.22626 14.4418 1.53233 12.8921 1.53233C11.7448 1.53233 10.7875 2.16291 10.0193 3.42266L6.06931 9.88802L13.0434 14.0657V14.0652ZM9.86816 32.8367H17.4846V24.6323H8.46924L6.76824 27.3545C6.49042 27.7958 6.35266 28.4642 6.35266 29.3583C6.35266 31.6778 7.52426 32.8364 9.86799 32.8364L9.86816 32.8367ZM19.6583 12.3261L26.6324 12.8743C29.3918 8.52639 30.7715 6.27688 30.7715 6.12557C30.7715 5.92429 30.6637 5.82312 30.4501 5.82312C30.2988 5.82312 30.1857 5.83651 30.1102 5.86095L28.371 6.74937L26.5567 3.15768C26.1276 2.326 25.3662 1.88581 24.2699 1.83442L15.1598 1.4374C15.827 1.79106 16.3441 2.35152 16.7097 3.12003L20.5842 11.1165L19.2802 11.8913C19.1412 11.967 19.0721 12.0371 19.0721 12.0992C19.0721 12.1249 19.2666 12.2005 19.6581 12.3263L19.6583 12.3261ZM24.572 23.6306H28.6356L23.7974 15.8802L31.7352 10.8899L36.271 18.1297C36.7249 18.8738 36.9517 19.5986 36.9517 20.3037C36.9517 20.7575 36.6682 21.5324 36.1011 22.6291L31.1492 32.1944C30.5822 33.304 29.7064 33.8579 28.522 33.8579H25.1203V35.408C25.1203 35.9752 24.8368 36.2587 24.2697 36.2587C24.0053 36.2587 23.7218 36.0262 23.4191 35.5593L19.11 29.0563L22.9088 22.5154C23.1734 22.0495 23.4946 21.8161 23.8727 21.8161C24.3388 21.8161 24.572 21.9928 24.572 22.3454V23.6308V23.6306ZM24.5343 33.1576H28.6356C29.4795 33.1576 30.1532 32.6799 30.658 31.721L35.0239 23.4411C34.1667 23.9839 33.3538 24.2542 32.5858 24.2542H23.9107V22.6285C23.9107 22.4904 23.8729 22.4205 23.7974 22.4205C23.7339 22.4837 23.6329 22.5904 23.4948 22.7418L19.8851 29.0177L24.1564 35.4831C24.1941 35.5586 24.2444 35.5962 24.3076 35.5962C24.4589 35.5962 24.5343 35.5018 24.5343 35.3127V33.1576ZM29.3351 23.6306H32.5858C33.3795 23.6306 34.1546 23.3535 34.9103 22.7988C35.8178 22.1439 36.2712 21.3244 36.2712 20.3414C36.2712 19.6985 36.038 18.999 35.5721 18.243L31.5464 11.7023L24.6102 16.05L29.3351 23.6303" fill="white"/>
</svg>
