<svg width="25" height="26" viewBox="0 0 25 26" fill="none" xmlns="http://www.w3.org/2000/svg">
<path d="M25 13.0578C25 12.0075 24.9149 11.241 24.7308 10.4462H12.7551V15.1867H19.7845C19.6429 16.3648 18.8776 18.1389 17.1769 19.3311L17.153 19.4898L20.9395 22.4275L21.2018 22.4537C23.6111 20.2253 25 16.9467 25 13.0578Z" fill="#4285F4"/>
<path d="M12.7551 25.5477C16.1989 25.5477 19.09 24.4122 21.2018 22.4536L17.1768 19.331C16.0997 20.0833 14.6541 20.6084 12.7551 20.6084C9.38209 20.6084 6.5193 18.3802 5.49879 15.3002L5.34921 15.313L1.41198 18.3645L1.36049 18.5079C3.45797 22.6806 7.76637 25.5477 12.7551 25.5477Z" fill="#34A853"/>
<path d="M5.49881 15.3003C5.22955 14.5055 5.07371 13.6538 5.07371 12.7739C5.07371 11.8938 5.22955 11.0423 5.48465 10.2474L5.47752 10.0782L1.49095 6.9776L1.36051 7.03973C0.496037 8.77133 0 10.7158 0 12.7739C0 14.8319 0.496037 16.7763 1.36051 18.5079L5.49881 15.3003Z" fill="#FBBC05"/>
<path d="M12.7555 4.93921C15.1506 4.93921 16.7662 5.97531 17.6875 6.84116L21.2872 3.32122C19.0764 1.2632 16.1993 0 12.7555 0C7.76681 0 3.45841 2.86701 1.36092 7.03979L5.48506 10.2475C6.51973 7.16758 9.38252 4.93921 12.7555 4.93921Z" fill="#EB4335"/>
</svg>
